<svg width="472" height="472" xmlns="http://www.w3.org/2000/svg">

 <g>
  <title>background</title>
  <rect fill="none" id="canvas_background" height="402" width="582" y="-1" x="-1"/>
 </g>
 <g>
  <title>Layer 1</title>
  <path id="svg_1" fill="#d19898" d="m304,39.114117l-8,8l-120,0l0,-8c0,-17.67187 14.32813,-32 32,-32l64,0c17.67188,0 32,14.32813 32,32zm0,0"/>
  <path id="svg_2" fill="#c68d8d" d="m180.44141,24c-2.87891,4.84375 -4.41407,10.36719 -4.44141,16l128,0c-0.02734,-5.63281 -1.5625,-11.15625 -4.44141,-16l-119.11718,0zm0,0"/>
  <path id="svg_3" fill="#966a6a" d="m32,40l128,0l0,32l-128,0l0,-32zm0,0"/>
  <path id="svg_4" fill="#845e5e" d="m136,40l24,0l0,32l-24,0l0,-32zm0,0"/>
  <path id="svg_5" fill="#845e5e" d="m32,40l24,0l0,32l-24,0l0,-32zm0,0"/>
  <path id="svg_6" fill="#ba8484" d="m152,40l176,0l0,72l-176,0l0,-72zm0,0"/>
  <path id="svg_7" fill="#aa7979" d="m152,88l176,0l0,16l-176,0l0,-16zm0,0"/>
  <path id="svg_8" fill="#ba8484" d="m8,32l32,0l0,48l-32,0l0,-48zm0,0"/>
  <path id="svg_10" d="m232,64l16,0l0,16l-16,0l0,-16zm0,0"/>
  <path id="svg_11" d="m264,64l16,0l0,16l-16,0l0,-16zm0,0"/>
  <path id="svg_12" d="m200,64l16,0l0,16l-16,0l0,-16zm0,0"/>
  <path id="svg_13" d="m296,64l32,0l0,16l-32,0l0,-16zm0,0"/>
  <path id="svg_14" fill="#966a6a" d="m408,152l0,8l-304,0l0,-8l12.35156,-37.05469c2.17578,-6.53906 8.29297,-10.94531 15.1836,-10.94531l248.92968,0c6.89453,-0.00781 13.01954,4.40234 15.19922,10.94531l12.33594,37.05469zm0,0"/>
  <path id="svg_15" fill="#845e5e" d="m456,200l0,32l-64,24l-296,0l-80,-64l18.12891,-30.20703c3.64062,-6.07813 10.20312,-9.79688 17.28515,-9.79297l372.85938,0c9.39062,0 17.73047,6.00781 20.70312,14.92188l11.02344,33.07812zm0,0"/>
  <path id="svg_16" fill="#cdcdcd" d="m232,224c0,17.67188 -14.32812,32 -32,32s-32,-14.32812 -32,-32s14.32813,-32 32,-32s32,14.32813 32,32zm0,0"/>
  <path id="svg_17" fill="#9c9c9c" d="m200,264c-22.08984,0 -40,-17.91016 -40,-40s17.91016,-40 40,-40s40,17.91016 40,40c-0.02734,22.08203 -17.91797,39.97266 -40,40zm0,-64c-13.25391,0 -24,10.74609 -24,24s10.74609,24 24,24s24,-10.74609 24,-24s-10.74609,-24 -24,-24zm0,0"/>
  <path id="svg_18" fill="#d9d9d9" d="m200,236c-6.62891,0 -12,-5.37109 -12,-12s5.37109,-12 12,-12s12,5.37109 12,12s-5.37109,12 -12,12zm0,0"/>
  <path id="svg_19" fill="#cdcdcd" d="m328,224c0,17.67188 -14.32812,32 -32,32s-32,-14.32812 -32,-32s14.32813,-32 32,-32s32,14.32813 32,32zm0,0"/>
  <path id="svg_20" fill="#d9d9d9" d="m296,236c-6.62891,0 -12,-5.37109 -12,-12s5.37109,-12 12,-12s12,5.37109 12,12s-5.37109,12 -12,12zm0,0"/>
  <path id="svg_21" fill="#cdcdcd" d="m416,224c0,17.67188 -14.32812,32 -32,32s-32,-14.32812 -32,-32s14.32813,-32 32,-32s32,14.32813 32,32zm0,0"/>
  <path id="svg_22" fill="#9c9c9c" d="m384,264c-22.08984,0 -40,-17.91016 -40,-40s17.91016,-40 40,-40s40,17.91016 40,40c-0.02734,22.08203 -17.91797,39.97266 -40,40zm0,-64c-13.25391,0 -24,10.74609 -24,24s10.74609,24 24,24s24,-10.74609 24,-24s-10.74609,-24 -24,-24zm0,0"/>
  <path id="svg_23" fill="#9c9c9c" d="m296,264c-22.08984,0 -40,-17.91016 -40,-40s17.91016,-40 40,-40s40,17.91016 40,40c-0.02734,22.08203 -17.91797,39.97266 -40,40zm0,-64c-13.25391,0 -24,10.74609 -24,24s10.74609,24 24,24s24,-10.74609 24,-24s-10.74609,-24 -24,-24zm0,0"/>
  <path id="svg_24" fill="#d9d9d9" d="m384,236c-6.62891,0 -12,-5.37109 -12,-12s5.37109,-12 12,-12s12,5.37109 12,12s-5.37109,12 -12,12zm0,0"/>
  <path id="svg_25" fill="#cdcdcd" d="m144,224c0,17.67188 -14.32812,32 -32,32s-32,-14.32812 -32,-32s14.32813,-32 32,-32s32,14.32813 32,32zm0,0"/>
  <path id="svg_26" fill="#9c9c9c" d="m112,264c-22.08984,0 -40,-17.91016 -40,-40s17.91016,-40 40,-40s40,17.91016 40,40c-0.02734,22.08203 -17.91797,39.97266 -40,40zm0,-64c-13.25391,0 -24,10.74609 -24,24s10.74609,24 24,24s24,-10.74609 24,-24s-10.74609,-24 -24,-24zm0,0"/>
  <path id="svg_27" fill="#d9d9d9" d="m112,236c-6.62891,0 -12,-5.37109 -12,-12s5.37109,-12 12,-12s12,5.37109 12,12s-5.37109,12 -12,12zm0,0"/>
  <path id="svg_28" fill="#cdcdcd" d="m72,192c0,13.25391 -10.74609,24 -24,24s-24,-10.74609 -24,-24s10.74609,-24 24,-24s24,10.74609 24,24zm0,0"/>
  <path id="svg_29" fill="#62666a" d="m380.0625,264l-272.47656,0c-9.35547,-0.00781 -18.41406,-3.28906 -25.60156,-9.27344l-39.10547,-32.58203l10.24218,-12.28906l39.10157,32.58594c4.3125,3.60156 9.74609,5.58203 15.36328,5.59765l272.47656,0c1.96094,0 3.91016,-0.23828 5.80859,-0.71093l51.91407,-14.97657l4.42968,15.375l-52.18359,15.04297c-3.25781,0.82813 -6.60547,1.24219 -9.96875,1.23047zm0,0"/>
  <path id="svg_30" fill="#62666a" d="m47.51172,175.98828l0.98047,-15.96875l392,24.00391l-0.97656,15.96875l-392.00391,-24.00391zm0,0"/>
  <path id="svg_31" fill="#787d82" d="m48,224c-17.67187,0 -32,-14.32812 -32,-32s14.32813,-32 32,-32s32,14.32813 32,32s-14.32812,32 -32,32zm0,-48c-8.83594,0 -16,7.16406 -16,16s7.16406,16 16,16s16,-7.16406 16,-16s-7.16406,-16 -16,-16zm0,0"/>
  <path id="svg_32" fill="#cdcdcd" d="m464,216c0,13.25391 -10.74609,24 -24,24s-24,-10.74609 -24,-24s10.74609,-24 24,-24s24,10.74609 24,24zm0,0"/>
  <path id="svg_33" fill="#787d82" d="m440,248c-17.67187,0 -32,-14.32812 -32,-32s14.32813,-32 32,-32s32,14.32813 32,32s-14.32812,32 -32,32zm0,-48c-8.83594,0 -16,7.16406 -16,16s7.16406,16 16,16s16,-7.16406 16,-16s-7.16406,-16 -16,-16zm0,0"/>
  <path id="svg_34" d="m200,212c-6.62891,0 -12,5.37109 -12,12s5.37109,12 12,12s12,-5.37109 12,-12s-5.37109,-12 -12,-12zm0,16c-2.21094,0 -4,-1.78906 -4,-4s1.78906,-4 4,-4s4,1.78906 4,4s-1.78906,4 -4,4zm0,0"/>
  <path id="svg_35" d="m112,212c-6.62891,0 -12,5.37109 -12,12s5.37109,12 12,12s12,-5.37109 12,-12s-5.37109,-12 -12,-12zm0,16c-2.21094,0 -4,-1.78906 -4,-4s1.78906,-4 4,-4s4,1.78906 4,4s-1.78906,4 -4,4zm0,0"/>
  <path id="svg_36" d="m296,212c-6.62891,0 -12,5.37109 -12,12s5.37109,12 12,12s12,-5.37109 12,-12s-5.37109,-12 -12,-12zm0,16c-2.21094,0 -4,-1.78906 -4,-4s1.78906,-4 4,-4s4,1.78906 4,4s-1.78906,4 -4,4zm0,0"/>
  <path id="svg_37" d="m384,212c-6.62891,0 -12,5.37109 -12,12s5.37109,12 12,12s12,-5.37109 12,-12s-5.37109,-12 -12,-12zm0,16c-2.21094,0 -4,-1.78906 -4,-4s1.78906,-4 4,-4s4,1.78906 4,4s-1.78906,4 -4,4zm0,0"/>
  <path id="svg_38" d="m8,88l32,0c4.41797,0 8,-3.58203 8,-8l96,0l0,16l-24,0c-3.44531,0 -6.50391,2.20313 -7.59375,5.47266l-14.17578,42.52734l-58.23047,0c-4.41797,0 -8,3.58203 -8,8l0,12.44922c-12,6.87109 -18.17969,20.71875 -15.27734,34.24219c2.90234,13.51953 14.21484,23.61328 27.98047,24.95703l37.28125,31.0625c7.1875,5.99219 16.24218,9.27734 25.60156,9.28906l272.47656,0c0.80078,0 1.60156,-0.10547 2.40234,-0.15234c0.51172,0 0.99219,0.15234 1.51172,0.15234c6.63282,-0.04687 13.14844,-1.76172 18.94532,-4.99219l38.79687,-11.19922c12.72266,-0.63281 23.84375,-8.78906 28.26953,-20.73437c4.42578,-11.94141 1.3086,-25.375 -7.93359,-34.14453l-14.48828,-43.47266c-1.08985,-3.2539 -4.13282,-5.44922 -7.56641,-5.45703l-26.23047,0l-14.17578,-42.52734c-1.08984,-3.26953 -4.14844,-5.47266 -7.59375,-5.47266l-56,0l0,-56c0,-4.41797 -3.58203,-8 -8,-8l-16.80078,0c-3.82813,-18.61328 -20.19922,-31.97656 -39.19922,-32l-64,0c-19,0.02344 -35.37109,13.38672 -39.19922,32l-120.80078,0c0,-4.41797 -3.58203,-8 -8,-8l-32,0c-4.41797,0 -8,3.58203 -8,8l0,48c0,4.41797 3.58203,8 8,8zm40,120c-8.83594,0.02344 -16.01953,-7.12109 -16.04297,-15.95703c-0.02344,-8.83594 7.11719,-16.01953 15.95313,-16.04297l0.44922,0c8.83593,0.09766 15.92187,7.34375 15.82031,16.17969c-0.09766,8.83594 -7.34375,15.91797 -16.17969,15.82031zm24.17578,17.73438l-7.71875,-6.39844c4.22656,-2.54297 7.8125,-6.02344 10.48047,-10.17578c-1.92187,4.71093 -2.91797,9.75 -2.9375,14.83984c0,0.59375 0.15234,1.14453 0.17578,1.73438zm39.82422,22.26562c-13.25391,0 -24,-10.74609 -24,-24s10.74609,-24 24,-24s24,10.74609 24,24s-10.74609,24 -24,24zm56.20703,0l-24.41406,0c5.29297,-6.88281 8.17578,-15.31641 8.20703,-24c0.05859,-18.03516 -11.99609,-33.85937 -29.39844,-38.59766c-17.39843,-4.73828 -35.8125,2.79297 -44.90625,18.36719c3.44532,-8.42578 3.01172,-17.9375 -1.1914,-26.00781l115.40625,7.0625c-18.56641,3.85937 -31.88672,20.21094 -31.91016,39.17578c0.03125,8.68359 2.91406,17.11719 8.20703,24zm31.79297,0c-13.25391,0 -24,-10.74609 -24,-24s10.74609,-24 24,-24s24,10.74609 24,24s-10.74609,24 -24,24zm64.20703,0l-32.41406,0c7.91016,-10.27734 10.27734,-23.78125 6.33984,-36.14062c-3.9414,-12.35547 -13.6875,-21.9961 -26.08593,-25.80469l63.27343,3.88281c-9.71484,5.77344 -16.49218,15.42969 -18.61718,26.53125c-2.1211,11.10156 0.60937,22.57813 7.5039,31.53125zm31.79297,0c-13.25391,0 -24,-10.74609 -24,-24s10.74609,-24 24,-24s24,10.74609 24,24s-10.74609,24 -24,24zm56.20703,0l-24.41406,0c6.39062,-8.28125 9.22266,-18.76953 7.87109,-29.14062c-1.35156,-10.375 -6.77343,-19.78516 -15.07031,-26.15625l36.10156,2.20703c-15.02734,13.85937 -16.97656,36.90625 -4.48828,53.08984zm44.96094,-4l-11.29688,3.26563c-1.3164,0.27343 -2.65625,0.4414 -4,0.49609c-11.58203,-1.12109 -20.66406,-10.43359 -21.5039,-22.03516c-0.83594,-11.60547 6.8164,-22.125 18.11719,-24.89843c11.30078,-2.76954 22.95312,3.01171 27.58203,13.6875s0.88281,23.13281 -8.86719,29.48437l-0.03125,0zm58.83203,-28c0,8.83594 -7.16406,16 -16,16s-16,-7.16406 -16,-16s7.16406,-16 16,-16s16,7.16406 16,16zm-48,-56l26.23047,0l8.08203,24.23047c-0.61719,-0.03906 -1.19922,-0.17578 -1.82422,-0.18359l-392,-24c-0.16797,0 -0.32031,-0.04688 -0.48828,-0.04688l360,0zm-200,-144l64,0c10.16797,0.01172 19.23047,6.41797 22.63281,16l-109.26562,0c3.40234,-9.58203 12.46484,-15.98828 22.63281,-16zm-48,56l0,-24l160,0l0,16l-24,0l0,16l24,0l0,16l-160,0l0,-24zm168,40l58.23047,0l10.67187,32l-281.80468,0l10.67187,-32l202.23047,0zm-280,-64l96,0l0,16l-96,0l0,-16zm-32,-8l16,0l0,32l-16,0l0,-32zm0,0"/>
  <path id="svg_39" d="m232,64l16,0l0,16l-16,0l0,-16zm0,0"/>
  <path id="svg_40" d="m264,64l16,0l0,16l-16,0l0,-16zm0,0"/>
  <path id="svg_41" d="m200,64l16,0l0,16l-16,0l0,-16zm0,0"/>
 </g>
</svg>